<?xml version="1.0" encoding="UTF-8" standalone="no"?>
<svg
   xmlns:dc="http://purl.org/dc/elements/1.1/"
   xmlns:cc="http://creativecommons.org/ns#"
   xmlns:rdf="http://www.w3.org/1999/02/22-rdf-syntax-ns#"
   xmlns:svg="http://www.w3.org/2000/svg"
   xmlns="http://www.w3.org/2000/svg"
   xmlns:sodipodi="http://sodipodi.sourceforge.net/DTD/sodipodi-0.dtd"
   xmlns:inkscape="http://www.inkscape.org/namespaces/inkscape"
   viewBox="0 0 45 45"
   style="enable-background:new 0 0 45 45;"
   xml:space="preserve"
   version="1.1"
   id="svg2"
   sodipodi:docname="eggplant.svg"
   inkscape:version="0.92.4 (5da689c313, 2019-01-14)"><sodipodi:namedview
     pagecolor="#ffffff"
     bordercolor="#666666"
     borderopacity="1"
     objecttolerance="10"
     gridtolerance="10"
     guidetolerance="10"
     inkscape:pageopacity="0"
     inkscape:pageshadow="2"
     inkscape:window-width="2560"
     inkscape:window-height="1377"
     id="namedview36"
     showgrid="false"
     inkscape:zoom="26.844444"
     inkscape:cx="22.5"
     inkscape:cy="22.518626"
     inkscape:window-x="1914"
     inkscape:window-y="1175"
     inkscape:window-maximized="1"
     inkscape:current-layer="g12" /><metadata
     id="metadata8"><rdf:RDF><cc:Work
         rdf:about=""><dc:format>image/svg+xml</dc:format><dc:type
           rdf:resource="http://purl.org/dc/dcmitype/StillImage" /></cc:Work></rdf:RDF></metadata><defs
     id="defs6"><clipPath
       id="clipPath16"
       clipPathUnits="userSpaceOnUse"><path
         id="path18"
         d="M 0,36 36,36 36,0 0,0 0,36 Z" /></clipPath></defs><g
     transform="matrix(1.25,0,0,-1.25,0,45)"
     id="g10"><g
       id="g12"><g
         clip-path="url(#clipPath16)"
         id="g14"><g
           transform="translate(6,32)"
           id="g20"><path
             id="path22"
             style="fill:#744eaa;fill-opacity:1;fill-rule:nonzero;stroke:none"
             d="m 0,0 c 3,0 5,-2 8,-6 3,-4 7.957,-7.191 12,-8 5,-1 9,-5 9,-11 0,-4.898 -3.846,-7 -9,-7 -5,0 -9,3 -14,8 -5,5 -10,14 -10,18 0,4 1,6 4,6" /></g><g
           transform="translate(3.5146,36)"
           id="g24"><path
             id="path26"
             style="fill:#77b255;fill-opacity:1;fill-rule:nonzero;stroke:none"
             d="m 0,0 c 1.248,0 1.248,-1.248 1.248,-2.495 0,-1.764 1.247,-1.129 2.495,-1.129 C 4.99,-3.624 7.485,-6 7.485,-6 l -3.742,0 c -1.248,0 0,-2.614 -1.248,-2.614 -1.247,0 -1.247,1.188 -2.495,1.188 -1.248,0 -1.515,-3.574 -1.515,-3.574 0,0 -1.604,4.153 0.267,6.024 C 0,-3.728 -2.495,0 0,0" /></g></g><path
         style="fill:#afc6e9;stroke-width:0.03725166"
         d="M 31.850166,44.97097 C 31.696502,44.96517 31.378001,44.94236 31.142384,44.92023 27.177788,44.547899 23.537251,42.703542 19.054222,38.796165 17.22309,37.200163 14.934852,34.975141 13.611666,33.503968 8.4313639,27.744291 3.4576186,18.830795 2.6404718,13.842385 2.5436601,13.251381 2.5568603,13.047988 2.7559732,12.062709 3.051831,10.598702 3.5098551,9.6412044 4.036197,9.3864067 4.3201222,9.2489608 4.8615167,9.2953977 5.2417787,9.4898126 c 0.1846021,0.094381 0.505916,0.3462528 0.7929895,0.6216104 0.4872509,0.467364 0.8906998,0.65058 1.4326037,0.65058 0.3453694,0 0.4881256,-0.06485 0.6404949,-0.290948 C 8.2395156,10.275701 8.2772654,10.014968 8.3084465,9.0856788 8.3246022,8.6042012 8.3562325,8.1496217 8.3787366,8.0755022 8.431324,7.9022998 8.5583306,7.7164741 8.6916558,7.6176636 8.7952105,7.5409168 8.8305545,7.5395811 11.022388,7.529578 l 2.225582,-0.010157 0.575719,0.5875578 c 0.937073,0.9563437 1.776251,1.9429242 2.939591,3.4559352 1.165654,1.516019 1.330607,1.724557 1.767962,2.235099 0.529564,0.618181 1.486973,1.604394 2.162053,2.227098 2.861873,2.639839 6.311909,4.752193 9.610927,5.884483 0.654421,0.224612 1.445574,0.435778 2.756622,0.735771 1.019224,0.233217 2.215682,0.668942 3.223284,1.173853 2.212029,1.108449 4.088911,2.79881 5.362582,4.829662 0.345249,0.550492 0.922072,1.712811 1.152391,2.322098 0.940243,2.487339 1.197496,5.577187 0.641392,7.703768 -0.705707,2.698667 -2.597271,4.568827 -5.614192,5.550667 -1.291946,0.420456 -2.631377,0.64694 -4.337063,0.733349 -0.686088,0.03476 -0.980803,0.03695 -1.639072,0.01221 z"
         id="path3750"
         inkscape:connector-curvature="0"
         transform="matrix(0.8,0,0,-0.8,0,36)" /><path
         style="fill:#9955ff;stroke-width:0.03725166"
         d="M 2.3459347,13.251081 C 1.6669904,11.077004 1.5379016,9.1073287 1.9826103,7.7073675 2.1679218,7.1239992 2.3604124,6.7847729 2.7821311,6.2983721 3.3797494,5.6090928 3.436184,5.0825969 3.1282268,3.0695364 2.9017949,1.5893917 2.9040738,1.1030951 3.1396613,0.62955298 3.3467792,0.21323626 3.714258,0.03352649 4.3584437,0.03352649 c 0.5686404,0 0.9019263,0.1410994 1.1534554,0.48832506 0.2842082,0.39233831 0.3728794,0.84344535 0.4129134,2.10066505 0.032906,1.0333598 0.060595,1.2322609 0.2126175,1.5273178 0.1533666,0.2976646 0.4368606,0.4737845 0.8421251,0.5231679 0.1403218,0.017099 0.5613452,-0.00446 1.1778858,-0.060312 0.9089699,-0.082345 0.973987,-0.083779 1.2344353,-0.027231 0.5575072,0.1210447 1.2559668,0.4856587 2.1571778,1.1261037 0.543223,0.3860404 1.449848,1.1196797 1.861542,1.5063564 l 0.279387,0.2624096 -2.369234,0.00177 C 9.6555926,7.4833346 8.9138846,7.4964353 8.8248882,7.5261788 8.40567,7.6662872 8.2712071,8.0847317 8.2698918,9.2533124 8.2695565,9.5401501 8.2516332,9.8837587 8.2300347,10.016887 8.1342633,10.607201 7.8245274,10.821118 7.2039442,10.725549 6.8021069,10.663666 6.4883541,10.487298 5.9972066,10.047214 5.3366998,9.4553776 5.0799903,9.3203944 4.5423961,9.2822435 4.3111151,9.2658304 4.2302997,9.2757014 4.0908165,9.3374017 3.3805678,9.6515773 2.8663353,10.901057 2.5693079,13.034354 c -0.044217,0.317571 -0.085557,0.58273 -0.091868,0.589244 -0.00631,0.0065 -0.065488,-0.161119 -0.1315052,-0.372517 z"
         id="path3752"
         inkscape:connector-curvature="0"
         transform="matrix(0.8,0,0,-0.8,0,36)" /></g></g></svg>